<svg height="512pt" viewBox="0 0 512.00171 512" width="512pt" xmlns="http://www.w3.org/2000/svg"><path d="m307.199219 76.800781v290.132813h-136.53125c-4.707031.015625-8.519531 3.828125-8.535157 8.535156v59.730469h-136.53125c-9.414062-.027344-17.039062-7.652344-17.066406-17.066407v-341.332031zm0 0" fill="#e8edfc"/><path d="m281.601562 76.800781v290.132813h-115.203124c-4.707032.015625-8.519532 3.828125-8.53125 8.535156v59.730469h-132.265626c-9.414062-.027344-17.039062-7.652344-17.066406-17.066407v-341.332031zm0 0" fill="#fff"/><path d="m307.199219 25.601562v51.199219h-298.664063v-51.199219c.027344-9.414062 7.652344-17.039062 17.066406-17.066406h264.53125c9.414063.027344 17.039063 7.652344 17.066407 17.066406zm0 0" fill="#7facfa"/><path d="m281.601562 25.601562v51.199219h-273.066406v-51.199219c.027344-9.414062 7.652344-17.039062 17.066406-17.066406h238.933594c9.414063.027344 17.039063 7.652344 17.066406 17.066406zm0 0" fill="#a4c2f7"/><path d="m51.199219 110.933594h17.066406c4.714844 0 8.535156 3.820312 8.535156 8.535156v85.332031h-34.132812v-85.332031c0-4.714844 3.820312-8.535156 8.53125-8.535156zm0 0" fill="#e8edfc"/><path d="m119.464844 162.132812h17.070312c4.710938 0 8.53125 3.820313 8.53125 8.535157v34.132812h-34.132812v-34.132812c0-4.714844 3.820312-8.535157 8.53125-8.535157zm0 0" fill="#e8edfc"/><path d="m187.734375 128h17.066406c4.710938 0 8.53125 3.820312 8.53125 8.535156v68.265625h-34.132812v-68.265625c0-4.714844 3.820312-8.535156 8.535156-8.535156zm0 0" fill="#e8edfc"/><path d="m367.53125 240.8125-48.640625 54.699219c-2.949219 3.375-7.210937 5.308593-11.691406 5.308593s-8.742188-1.933593-11.691407-5.308593l-1.109374-1.28125-47.527344-53.417969c-5.292969-5.933594-5.292969-14.890625 0-20.824219l47.527344-53.417969 1.109374-1.277343c2.949219-3.375 7.210938-5.3125 11.691407-5.3125s8.742187 1.9375 11.691406 5.3125l48.640625 54.695312c5.289062 5.933594 5.289062 14.890625 0 20.824219zm0 0" fill="#cad9fc"/><path d="m341.929688 240.8125-47.53125 53.417969-47.527344-53.417969c-5.292969-5.933594-5.292969-14.890625 0-20.824219l47.527344-53.417969 47.53125 53.417969c5.292968 5.933594 5.292968 14.890625 0 20.824219zm0 0" fill="#e8edfc"/><path d="m170.667969 366.933594h273.066406c4.710937 0 8.53125 3.820312 8.53125 8.535156v119.464844c0 4.714844-3.820313 8.535156-8.53125 8.535156h-273.066406c-4.714844 0-8.535157-3.820312-8.535157-8.535156v-119.464844c0-4.714844 3.820313-8.535156 8.535157-8.535156zm0 0" fill="#a4c2f7"/><path d="m170.667969 366.933594h247.464843c4.714844 0 8.535157 3.820312 8.535157 8.535156v119.464844c0 4.714844-3.820313 8.535156-8.535157 8.535156h-247.464843c-4.714844 0-8.535157-3.820312-8.535157-8.535156v-119.464844c0-4.714844 3.820313-8.535156 8.535157-8.535156zm0 0" fill="#cad9fc"/><path d="m477.867188 136.535156c.003906 9.050782-3.59375 17.734375-9.996094 24.136719s-15.085938 10-24.136719 9.996094c-4.398437.035156-8.753906-.839844-12.800781-2.558594-12.890625-5.183594-21.332032-17.683594-21.332032-31.574219 0-13.894531 8.441407-26.390625 21.332032-31.574218 4.046875-1.722657 8.402344-2.59375 12.800781-2.558594 9.050781-.003906 17.734375 3.589844 24.136719 9.992187 6.402344 6.402344 10 15.085938 9.996094 24.140625zm0 0" fill="#cad9fc"/><path d="m452.265625 136.535156c0-17.4375-9.550781-31.574218-21.332031-31.574218s-21.332032 14.136718-21.332032 31.574218 9.550782 31.574219 21.332032 31.574219 21.332031-14.136719 21.332031-31.574219zm0 0" fill="#e8edfc"/><path d="m51.199219 42.667969c0 4.710937-3.820313 8.53125-8.53125 8.53125-4.714844 0-8.535157-3.820313-8.535157-8.53125 0-4.714844 3.820313-8.535157 8.535157-8.535157 4.710937 0 8.53125 3.820313 8.53125 8.535157zm0 0" fill="#428dff"/><path d="m85.332031 42.667969c0 4.710937-3.820312 8.53125-8.53125 8.53125-4.714843 0-8.535156-3.820313-8.535156-8.53125 0-4.714844 3.820313-8.535157 8.535156-8.535157 4.710938 0 8.53125 3.820313 8.53125 8.535157zm0 0" fill="#428dff"/><path d="m119.464844 42.667969c0 4.710937-3.820313 8.53125-8.53125 8.53125-4.714844 0-8.535156-3.820313-8.535156-8.53125 0-4.714844 3.820312-8.535157 8.535156-8.535157 4.710937 0 8.53125 3.820313 8.53125 8.535157zm0 0" fill="#428dff"/><path d="m25.601562 435.199219h25.597657c-9.414063-.027344-17.039063-7.652344-17.066407-17.066407v-392.53125c.027344-9.414062 7.652344-17.039062 17.066407-17.066406h-25.597657c-9.414062.027344-17.039062 7.652344-17.066406 17.066406v392.53125c.027344 9.414063 7.652344 17.039063 17.066406 17.066407zm0 0" fill="#fff"/><g fill="#428dff"><path d="m307.199219 315.734375c-2.4375 0-4.757813-1.042969-6.375-2.867187l-68.265625-76.800782c-2.875-3.230468-2.875-8.101562 0-11.332031l68.265625-76.800781c1.660156-1.75 3.964843-2.738282 6.375-2.738282 2.410156 0 4.714843.988282 6.375 2.738282l68.269531 76.800781c2.871094 3.230469 2.871094 8.101563 0 11.332031l-68.269531 76.800782c-1.617188 1.824218-3.9375 2.867187-6.375 2.867187zm-56.847657-85.332031 56.847657 63.957031 56.851562-63.957031-56.851562-63.960938zm0 0"/><path d="m443.734375 512h-273.066406c-9.421875-.011719-17.054688-7.644531-17.066407-17.066406v-119.464844c.011719-9.421875 7.644532-17.054688 17.066407-17.066406h273.066406c9.417969.011718 17.054687 7.644531 17.066406 17.066406v119.464844c-.011719 9.421875-7.648437 17.054687-17.066406 17.066406zm-273.066406-136.53125v119.464844h273.082031l-.015625-119.464844zm0 0"/><path d="m332.800781 409.601562h-136.535156c-4.710937 0-8.53125-3.820312-8.53125-8.535156 0-4.710937 3.820313-8.53125 8.53125-8.53125h136.535156c4.710938 0 8.53125 3.820313 8.53125 8.53125 0 4.714844-3.820312 8.535156-8.53125 8.535156zm0 0"/><path d="m418.132812 443.734375h-221.867187c-4.710937 0-8.53125-3.820313-8.53125-8.535156 0-4.710938 3.820313-8.53125 8.53125-8.53125h221.867187c4.714844 0 8.535157 3.820312 8.535157 8.53125 0 4.714843-3.820313 8.535156-8.535157 8.535156zm0 0"/><path d="m273.066406 477.867188h-76.800781c-4.710937 0-8.53125-3.820313-8.53125-8.53125 0-4.714844 3.820313-8.535157 8.53125-8.535157h76.800781c4.714844 0 8.535156 3.820313 8.535156 8.535157 0 4.710937-3.820312 8.53125-8.535156 8.53125zm0 0"/><path d="m307.199219 375.46875c-4.710938 0-8.53125-3.820312-8.53125-8.535156v-59.734375c0-4.710938 3.820312-8.53125 8.53125-8.53125 4.714843 0 8.535156 3.820312 8.535156 8.53125v59.734375c0 4.714844-3.820313 8.535156-8.535156 8.535156zm0 0"/><path d="m463.234375 443.734375h-10.96875c-4.710937 0-8.53125-3.820313-8.53125-8.535156 0-4.710938 3.820313-8.53125 8.53125-8.53125h10.96875c4.710937 0 8.53125 3.820312 8.53125 8.53125 0 4.714843-3.820313 8.535156-8.53125 8.535156zm33.40625-3.410156c-3.675781.003906-6.941406-2.34375-8.101563-5.832031-1.164062-3.488282.039063-7.328126 2.980469-9.53125 2.160157-1.601563 3.429688-4.136719 3.414063-6.828126v-1.214843c0-4.714844 3.820312-8.535157 8.53125-8.535157 4.714844 0 8.535156 3.820313 8.535156 8.535157v1.214843c-.019531 8.058594-3.8125 15.644532-10.25 20.492188-1.476562 1.105469-3.269531 1.699219-5.109375 1.699219zm6.828125-49.007813c-2.265625.003906-4.433594-.894531-6.035156-2.496094-1.601563-1.601562-2.5-3.773437-2.5-6.035156v-17.066406c0-4.714844 3.820312-8.535156 8.535156-8.535156 4.710938 0 8.53125 3.820312 8.53125 8.535156v17.066406c.003906 2.261719-.894531 4.433594-2.496094 6.035156-1.601562 1.601563-3.773437 2.5-6.039062 2.496094zm0-51.199218c-2.265625 0-4.433594-.898438-6.035156-2.496094-1.601563-1.601563-2.5-3.773438-2.5-6.035156v-17.070313c0-4.710937 3.820312-8.53125 8.535156-8.53125 4.710938 0 8.53125 3.820313 8.53125 8.53125v17.070313c.003906 2.261718-.894531 4.433593-2.496094 6.035156-1.601562 1.601562-3.773437 2.5-6.039062 2.496094zm0-51.199219c-2.265625 0-4.433594-.898438-6.035156-2.5-1.601563-1.597657-2.5-3.769531-2.5-6.035157v-17.066406c0-4.710937 3.820312-8.53125 8.535156-8.53125 4.710938 0 8.53125 3.820313 8.53125 8.53125v17.066406c.003906 2.265626-.894531 4.4375-2.496094 6.039063-1.601562 1.597656-3.773437 2.496094-6.039062 2.496094zm-8.890625-47.902344c-1.425781 0-2.828125-.355469-4.074219-1.039063-1.257812-.6875-2.671875-1.046874-4.105468-1.042968h-8.53125c-4.714844 0-8.535157-3.820313-8.535157-8.53125 0-4.714844 3.820313-8.535156 8.535157-8.535156h8.53125c4.285156.003906 8.503906 1.078124 12.269531 3.125 3.425781 1.867187 5.148437 5.824218 4.179687 9.605468-.964844 3.78125-4.375 6.425782-8.277344 6.417969zm-50.84375-2.082031h-17.066406c-4.714844 0-8.535157-3.820313-8.535157-8.53125 0-4.714844 3.820313-8.535156 8.535157-8.535156h17.066406c4.710937 0 8.53125 3.820312 8.53125 8.535156 0 4.710937-3.820313 8.53125-8.53125 8.53125zm-51.199219 0h-17.070312c-4.710938 0-8.53125-3.820313-8.53125-8.53125 0-4.714844 3.820312-8.535156 8.53125-8.535156h17.070312c4.710938 0 8.53125 3.820312 8.53125 8.535156 0 4.710937-3.820312 8.53125-8.53125 8.53125zm0 0"/><path d="m443.734375 179.199219c-23.566406 0-42.667969-19.101563-42.667969-42.664063 0-23.566406 19.101563-42.667968 42.667969-42.667968 23.5625 0 42.664063 19.101562 42.664063 42.667968-.027344 23.550782-19.113282 42.636719-42.664063 42.664063zm0-68.265625c-14.140625 0-25.601563 11.460937-25.601563 25.601562 0 14.136719 11.460938 25.597656 25.601563 25.597656 14.136719 0 25.597656-11.460937 25.597656-25.597656-.015625-14.132812-11.464843-25.585937-25.597656-25.601562zm0 0"/><path d="m238.933594 238.933594c-2.265625.003906-4.433594-.898438-6.035156-2.5l-23.097657-23.097656h-158.601562c-4.710938 0-8.53125-3.820313-8.53125-8.535157 0-4.710937 3.820312-8.535156 8.53125-8.535156h162.132812c2.265625 0 4.433594.902344 6.035157 2.503906l25.597656 25.597657c2.441406 2.441406 3.171875 6.109374 1.851562 9.300781-1.320312 3.1875-4.433594 5.265625-7.882812 5.265625zm0 0"/><path d="m76.800781 213.335938h-34.132812c-4.714844 0-8.535157-3.820313-8.535157-8.535157v-85.332031c.011719-9.421875 7.648438-17.054688 17.066407-17.066406h17.066406c9.421875.011718 17.054687 7.644531 17.066406 17.066406v85.332031c0 4.714844-3.820312 8.535157-8.53125 8.535157zm-25.601562-17.070313h17.066406v-76.796875h-17.066406zm0 0"/><path d="m145.066406 213.335938h-34.132812c-4.714844 0-8.535156-3.820313-8.535156-8.535157v-34.132812c.015624-9.421875 7.648437-17.054688 17.066406-17.066407h17.070312c9.417969.011719 17.050782 7.644532 17.066406 17.066407v34.132812c0 4.714844-3.820312 8.535157-8.535156 8.535157zm-25.601562-17.070313h17.070312v-25.597656h-17.070312zm0 0"/><path d="m213.332031 213.335938h-34.132812c-4.710938 0-8.53125-3.820313-8.53125-8.535157v-68.265625c.011719-9.421875 7.644531-17.054687 17.066406-17.066406h17.066406c9.417969.011719 17.054688 7.644531 17.066407 17.066406v68.265625c0 4.714844-3.820313 8.535157-8.535157 8.535157zm-25.597656-17.070313h17.066406v-59.730469h-17.066406zm0 0"/></g><path d="m0 418.132812v-392.53125h17.066406v392.53125zm0 0" fill="#fff"/><path d="m8.535156 375.46875c-4.710937.011719-8.5234372 3.824219-8.535156 8.53125v34.132812h17.066406v-34.132812c-.011718-4.707031-3.824218-8.519531-8.53125-8.53125zm0 0" fill="#428dff"/><path d="m17.066406 25.601562h-17.066406v290.132813c0 4.710937 3.820312 8.53125 8.535156 8.53125 4.710938 0 8.53125-3.820313 8.53125-8.53125zm0 0" fill="#428dff"/><path d="m0 349.867188c.0351562 2.257812.917969 4.421874 2.476562 6.058593l1.277344 1.023438c.476563.324219.992188.582031 1.535156.769531.484376.246094 1.003907.417969 1.539063.511719.5625.097656 1.132813.152343 1.707031.171875 2.257813-.03125 4.421875-.917969 6.058594-2.476563 3.21875-3.398437 3.21875-8.71875 0-12.117187-.816406-.769532-1.773438-1.378906-2.816406-1.792969-1.027344-.4375-2.128906-.667969-3.242188-.679687-2.261718.03125-4.421875.917968-6.058594 2.472656-1.558593 1.636718-2.4414058 3.800781-2.476562 6.058594zm0 0" fill="#428dff"/><path d="m162.132812 443.734375h-136.53125c-14.132812-.015625-25.585937-11.46875-25.601562-25.601563 0-4.710937 3.820312-8.53125 8.535156-8.53125 4.710938 0 8.53125 3.820313 8.53125 8.53125.003906 4.714844 3.820313 8.53125 8.535156 8.535157h128v-51.199219c.011719-9.421875 7.644532-17.054688 17.066407-17.066406h128v-47.957032l-66.109375-74.375c-2.875-3.234374-2.875-8.105468 0-11.335937l66.109375-74.375v-124.757813c-.003907-4.710937-3.824219-8.53125-8.535157-8.535156h-264.53125c-4.714843.003906-8.53125 3.824219-8.535156 8.535156 0 4.710938-3.820312 8.53125-8.53125 8.53125-4.714844 0-8.535156-3.820312-8.535156-8.53125.015625-14.132812 11.46875-25.585937 25.601562-25.601562h264.53125c14.132813.015625 25.585938 11.46875 25.601563 25.601562v128c0 2.089844-.769531 4.105469-2.160156 5.667969l-63.222657 71.132813 63.222657 71.132812c1.390625 1.558594 2.160156 3.574219 2.160156 5.664063v59.734375c0 4.714844-3.820313 8.535156-8.535156 8.535156h-136.53125v59.730469c0 4.714843-3.820313 8.535156-8.535157 8.535156zm0 0" fill="#428dff"/><path d="m307.199219 85.335938h-298.664063c-4.714844 0-8.535156-3.820313-8.535156-8.535157v-51.199219c.015625-14.132812 11.46875-25.585937 25.601562-25.601562h264.53125c14.132813.015625 25.585938 11.46875 25.601563 25.601562v51.199219c0 4.714844-3.820313 8.535157-8.535156 8.535157zm-290.132813-17.070313h281.601563v-42.664063c-.003907-4.710937-3.824219-8.53125-8.535157-8.535156h-264.53125c-4.714843.003906-8.53125 3.824219-8.535156 8.535156zm0 0" fill="#428dff"/><path d="m128 409.601562h-85.332031c-4.714844 0-8.535157-3.820312-8.535157-8.535156 0-4.710937 3.820313-8.53125 8.535157-8.53125h85.332031c4.710938 0 8.535156 3.820313 8.535156 8.53125 0 4.714844-3.824218 8.535156-8.535156 8.535156zm0 0" fill="#428dff"/><path d="m85.332031 375.46875h-42.664062c-4.714844 0-8.535157-3.820312-8.535157-8.535156 0-4.710938 3.820313-8.53125 8.535157-8.53125h42.664062c4.714844 0 8.535157 3.820312 8.535157 8.53125 0 4.714844-3.820313 8.535156-8.535157 8.535156zm0 0" fill="#428dff"/><path d="m170.667969 341.335938h-128c-4.714844 0-8.535157-3.820313-8.535157-8.535157 0-4.710937 3.820313-8.535156 8.535157-8.535156h128c4.710937 0 8.53125 3.824219 8.53125 8.535156 0 4.714844-3.820313 8.535157-8.53125 8.535157zm0 0" fill="#428dff"/><path d="m204.800781 307.199219h-162.132812c-4.714844 0-8.535157-3.820313-8.535157-8.53125 0-4.714844 3.820313-8.535157 8.535157-8.535157h162.132812c4.710938 0 8.53125 3.820313 8.53125 8.535157 0 4.710937-3.820312 8.53125-8.53125 8.53125zm0 0" fill="#428dff"/><path d="m221.867188 273.066406h-179.199219c-4.714844 0-8.535157-3.820312-8.535157-8.53125 0-4.714844 3.820313-8.535156 8.535157-8.535156h179.199219c4.710937 0 8.53125 3.820312 8.53125 8.535156 0 4.710938-3.820313 8.53125-8.53125 8.53125zm0 0" fill="#428dff"/><path d="m443.734375 204.800781c-4.714844 0-8.535156-3.820312-8.535156-8.535156v-25.597656c0-4.714844 3.820312-8.535157 8.535156-8.535157 4.710937 0 8.53125 3.820313 8.53125 8.535157v25.597656c0 4.714844-3.820313 8.535156-8.53125 8.535156zm0 0" fill="#428dff"/></svg>