<?xml version="1.0"?>
<svg xmlns="http://www.w3.org/2000/svg" viewBox="0 0 64 64" width="512" height="512"><g id="Protection_network" data-name="Protection network"><path d="M32,18.088,17,21.246V36.812A20.09,20.09,0,0,0,28.437,54.887L32,56.574l3.562-1.687A20.089,20.089,0,0,0,47,36.812V21.246Z" style="fill:#9bc9ff"/><path d="M16.794,20.267a1,1,0,0,0-.794.979V36.812A21.1,21.1,0,0,0,28.01,55.791l3.562,1.687a1,1,0,0,0,.856,0l3.561-1.687A21.094,21.094,0,0,0,48,36.812V21.246a1,1,0,0,0-.794-.979l-15-3.158a1.021,1.021,0,0,0-.412,0ZM46,22.057V36.812A19.086,19.086,0,0,1,35.134,53.983L32,55.468l-3.135-1.485A19.085,19.085,0,0,1,18,36.812V22.057L32,19.11Z" style="fill:#1e81ce"/><path d="M29.293,41.707a1,1,0,0,0,1.414,0l9.9-9.9a1,1,0,0,0-1.414-1.414L30,39.586l-4.95-4.95a1,1,0,0,0-1.414,1.414Z" style="fill:#1e81ce"/><path d="M59,27a3,3,0,0,0-2.816,2H52V23h4.184a3,3,0,1,0,0-2H52V18a1,1,0,0,0-.794-.979L48,16.346V11.535L52.988,8.21A2.989,2.989,0,1,0,52,6a2.968,2.968,0,0,0,.044.435L46,10.465v5.46L33,13.189v-3.5l6.875-2.578A3,3,0,1,0,39,5a2.861,2.861,0,0,0,.03.295L31,8.307v4.882L12.794,17.021A1,1,0,0,0,12,18V36.812c0,.4.024.793.043,1.188H7.816a3,3,0,1,0,0,2h4.4a24.991,24.991,0,0,0,2.464,8H7.816a3,3,0,1,0,0,2h7.976a25.294,25.294,0,0,0,2.948,3.846L14.586,58H7.816a3,3,0,1,0,0,2h7.6l4.742-4.742A24.768,24.768,0,0,0,26.3,59.406l5.274,2.5a1,1,0,0,0,.856,0l5.274-2.5A25.112,25.112,0,0,0,52,36.812V31h4.184A2.995,2.995,0,1,0,59,27Zm0-6a1,1,0,1,1-1,1A1,1,0,0,1,59,21ZM55,5a1,1,0,1,1-1,1A1,1,0,0,1,55,5ZM42,4a1,1,0,1,1-1,1A1,1,0,0,1,42,4ZM5,40a1,1,0,1,1,1-1A1,1,0,0,1,5,40ZM5,50a1,1,0,1,1,1-1A1,1,0,0,1,5,50ZM5,60a1,1,0,1,1,1-1A1,1,0,0,1,5,60ZM50,36.812A23.1,23.1,0,0,1,36.847,57.6L32,59.894l-4.847-2.3A23.1,23.1,0,0,1,14,36.812v-18l18-3.79,18,3.79ZM59,31a1,1,0,1,1,1-1A1,1,0,0,1,59,31Z" style="fill:#1e81ce"/></g></svg>
