<svg height="512" viewBox="0 0 52 60" width="512" xmlns="http://www.w3.org/2000/svg"><g id="058---Customer-Service-Training" fill="none"><g id="Layer_4" transform="translate(1)"><path id="Shape" d="m33 38.23v6.77s-1 4-8 4-8-4-8-4v-6.77c.0343697.0357757.0711203.0691853.11.1 3.16 2.84 3.16 5.67 6.31 5.67h3.16c3.15 0 3.15-2.83 6.31-5.67.0388797-.0308147.0756303-.0642243.11-.1z" fill="#cad9fc"/><path id="Shape" d="m35.99 24.84c-.23 2.59-.74 3.58-.74 5.4 0 .23.01.46.01.69.02.71.08 1.39.08 2.07.0778998 2.012782-.7873889 3.9467391-2.34 5.23-.0343697.0357757-.0711203.0691853-.11.1-3.16 2.84-3.16 5.67-6.31 5.67h-3.16c-3.15 0-3.15-2.83-6.31-5.67-.0388797-.0308147-.0756303-.0642243-.11-.1-1.5526111-1.2832609-2.4178998-3.217218-2.34-5.23 0-.68.06-1.36.08-2.07 0-.23.01-.46.01-.69 0-1.78-.47-2.76-.71-5.24-.0433237-.4220736-.0466719-.8472965-.01-1.27 1.52.89 4.86 2.27 10.97 2.27 2.6913289.0467994 5.3754203-.2933427 7.97-1.01 1.0573447-.3000933 2.0746772-.7265 3.03-1.27.0266695.3729986.0233254.7475371-.01 1.12z" fill="#e8edfc"/><path id="Shape" d="m35.99 24.84c-.23 2.59-.74 3.58-.74 5.4 0 .23.01.46.01.69.02.71.08 1.39.08 2.07.0778998 2.012782-.7873889 3.9467391-2.34 5.23-.0343697.0357757-.0711203.0691853-.11.1-3.16 2.84-3.16 5.67-6.31 5.67h-3c3.15 0 3.15-2.83 6.31-5.67.0388797-.0308147.0756303-.0642243.11-.1 1.5526111-1.2832609 2.4178998-3.217218 2.34-5.23 0-.68-.06-1.36-.08-2.07 0-.23-.01-.46-.01-.69 0-1.78.49-2.78.72-5.25 1.0573447-.3000933 2.0746772-.7265 3.03-1.27.0266695.3729986.0233254.7475371-.01 1.12z" fill="#cad9fc"/><path id="Shape" d="m50 56v1c-.0032948 1.1032019-.8967981 1.9967052-2 2h-46c-1.10320187-.0032948-1.9967052-.8967981-2-2v-1c0-6 3.45-7 3.45-7l13.55-4s1 4 8 4 8-4 8-4l13.55 4s3.45 1 3.45 7z" fill="#e8edfc"/><g fill="#a4c2f7"><path id="Shape" d="m46.55 49-13.55-4c-.0867504.2737532-.2069948.5357381-.358.78l10.908 3.22s3.45 1 3.45 7v1c-.0032948 1.1032019-.8967981 1.9967052-2 2h3c1.1032019-.0032948 1.9967052-.8967981 2-2v-1c0-6-3.45-7-3.45-7z"/><path id="Shape" d="m41 25v6c-.0032948 1.1032019-.8967981 1.9967052-2 2h-3.66c0-.68-.06-1.36-.08-2.07 0-.23-.01-.46-.01-.69 0-1.82.51-2.81.74-5.4.0333254-.3724629.0366695-.7470014.01-1.12.3586901-.2026618.6940344-.4441097 1-.72h2c1.1032019.0032948 1.9967052.8967981 2 2z"/><path id="Shape" d="m39 23h-2s-.071.067-.2.171c.7266449.3185413 1.1971088 1.0356067 1.2 1.829v6c-.0032948 1.1032019-.8967981 1.9967052-2 2h3c1.1032019-.0032948 1.9967052-.8967981 2-2v-6c-.0032948-1.1032019-.8967981-1.9967052-2-2z"/><path id="Shape" d="m14.75 30.24c0 .23-.01.46-.01.69-.02.71-.08 1.39-.08 2.07h-3.66c-1.10320187-.0032948-1.9967052-.8967981-2-2v-6c.0032948-1.1032019.89679813-1.9967052 2-2h2c.3140642.2822006.6596905.5271591 1.03.73-.0366719.4227035-.0333237.8479264.01 1.27.24 2.48.71 3.46.71 5.24z"/><rect id="Rectangle-path" height="4" rx="1" width="6" x="22" y="35"/></g><path id="Shape" d="m37 13.51v9.49c-.3059656.2758903-.6413099.5173382-1 .72-.9553228.5435-1.9726553.9699067-3.03 1.27-2.5945797.7166573-5.2786711 1.0567994-7.97 1.01-6.11 0-9.45-1.38-10.97-2.27-.3703095-.2028409-.7159358-.4477994-1.03-.73v-9.49l11.13 5.29c.5485726.2700212 1.1914274.2700212 1.74 0z" fill="#7facfa"/><path id="Shape" d="m42.42 10.93-5.42 2.58-11.13 5.29c-.5485726.2700212-1.1914274.2700212-1.74 0l-11.13-5.29-5.42-2.58c-.35340581-.1751924-.57697505-.5355535-.57697505-.93 0-.39444648.22356924-.75480764.57697505-.93l16.55-7.87c.5485726-.27002122 1.1914274-.27002122 1.74 0l16.55 7.87c.3534058.17519236.5769751.53555352.5769751.93 0 .3944465-.2235693.7548076-.5769751.93z" fill="#a4c2f7"/><ellipse id="Oval" cx="25" cy="10" fill="#a4c2f7" rx="3" ry="2"/></g><g id="Layer_3" fill="#fff" transform="translate(1)"><path id="Shape" d="m13 23h-2.188c-1.04994252.0576259-1.85796444.9494824-1.812 2v6c-.04596444 1.0505176.76205748 1.9423741 1.812 2h3c-1.0499425-.0576259-1.8579644-.9494824-1.812-2v-6c-.0459644-1.0505176.7620575-1.9423741 1.812-2h2.188l1.994-9c.1 0-.265-.13-6.419-3.068-.3535041-.1748623-.5772188-.5351119-.5772188-.9295 0-.39438808.2237147-.75463768.5772188-.9295l15.92-7.573-.63-.3c-.5483581-.27094115-1.1916419-.27094115-1.74 0l-16.55 7.87c-.35350407.17486232-.5772188.53511192-.5772188.9295 0 .3943881.22371473.7546377.5772188.9295l4.431 2.071h-.006z"/><path id="Shape" d="m17 45-13.55 4s-3.45 1-3.45 7v1c.0032948 1.1032019.89679813 1.9967052 2 2h3c-1.10320187-.0032948-1.9967052-.8967981-2-2v-1c0-6 3.45-7 3.45-7 1.508-.445-.254.148 11.55-4"/></g><path id="Rectangle-path" d="m3 58h8v2h-8z" fill="#fff"/><g fill="#428dff"><circle id="Oval" cx="7" cy="59" r="1"/><path id="Shape" d="m4.172 48.039c-.172.05-4.172 1.286-4.172 7.961v1c0 2.97 4 3.92 4 2 0-.5522847-.44771525-1-1-1s-1-.4477153-1-1v-1c0-5.089 2.632-6.008 2.733-6.041l12.717-3.754c.792 1.395 2.962 3.795 8.55 3.795s7.758-2.4 8.55-3.8l12.706 3.751c.112.041 2.744.96 2.744 6.049v1c0 .5522847-.4477153 1-1 1h-38c-.5522847 0-1 .4477153-1 1s.4477153 1 1 1h38c1.6568542 0 3-1.3431458 3-3v-1c0-6.675-4-7.911-4.167-7.959l-12.833-3.788v-5.62c1.3023724-1.2135815 2.1164167-2.86123 2.289-4.633h2.711c1.6568542 0 3-1.3431458 3-3v-6c0-1.6568542-1.3431458-3-3-3h-1v-7.863l4.847-2.308c.704629-.3366262 1.153222-1.0480907 1.153222-1.829 0-.78090926-.448593-1.49237379-1.153222-1.829l-16.547-7.877c-.8224006-.39173422-1.7775994-.39173422-2.6 0l-16.547 7.877c-.70462903.33662621-1.153222 1.04809074-1.153222 1.829 0 .7809093.44859297 1.4923738 1.153222 1.829l4.847 2.308v7.863h-1c-1.6568542 0-3 1.3431458-3 3v6c.00525139 1.2667854.80564913 2.3937454 2 2.816v1.184c0 2.209139 1.790861 4 4 4h2v5.253zm14.828-3.193v-4.07c1.628 2.115 2.406 4.224 5.42 4.224 4.533 0 5.347.414 7.7-3.01.265-.385.553-.8.876-1.214v4.073c-1.551 4.224-12.415 4.232-13.996-.003zm14.221-7.26c-3.121 2.814-3.216 5.414-5.641 5.414-4.319 0-4.289.422-6.057-2.144-.38-.553-.832-1.191-1.392-1.856h2.147c.3544126.6167513 1.0106732.997855 1.722 1h4c1.1045695 0 2-.8954305 2-2v-2c0-1.1045695-.8954305-2-2-2h-4c-1.1045695 0-2 .8954305-2 2v1h-3.818c-1.0418745-1.0634309-1.5934205-2.5129604-1.522-4 .1865775-1.8417166.1077736-3.7006809-.234-5.52-.115-.6-.241-1.276-.34-2.129 5.331 2.209 14.507 2.212 19.844-.007-.1.86-.23 1.539-.348 2.142-.3499356 1.8162693-.4314707 3.6740571-.242 5.514.0724923 1.7805284-.7160874 3.4871949-2.119 4.586zm-9.221.414v-2h4v2zm17-13v6c0 .5522847-.4477153 1-1 1h-2.695c-.21-4.088.346-3.283.681-7.073.077-.866-.193-.489.374-.927h1.64c.5522847 0 1 .4477153 1 1zm-15.442-22.9c.2791912-.13505696.6048088-.13505696.884 0l16.545 7.878c.578-1.215.569-1.21 0 .044l-16.545 7.878c-.2791912.135057-.6048088.135057-.884 0l-5.535-2.65 3.944-2.667c2.71 1.183 6.033-.249 6.033-2.583 0-1.683-1.757-3-4-3-2.938 0-4.846 2.238-3.637 4.253l-4.43 2.995-8.92-4.27zm-1.093 8.5c-.2-.139-.465-.355-.465-.6 0-.408.779-1 2-1s2 .592 2 1c0 .81-2.223 1.445-3.535.6zm-7.465 5.441v4.959c0 .5522847.4477153 1 1 1s1-.4477153 1-1v-4.007c6.112 2.907 6.091 3.007 7 3.007.94 0 .6.041 11-4.912v7.432c-4.688 3.32-17.335 3.309-22 0v-7.431zm-6 8.959c0-.5522847.4477153-1 1-1h1.64c.534.412.3.015.405 1.1.364 3.8.854 2.934.65 6.9h-2.695c-.5522847 0-1-.4477153-1-1zm2 10v-1h1.711c.0949608 1.0626699.4333724 2.0891966.989 3h-.7c-1.1045695 0-2-.8954305-2-2z"/></g></g></svg>